<?xml version="1.0" encoding="UTF-8"?>
<svg width="33px" height="39px" viewBox="0 0 33 39" version="1.1" xmlns="http://www.w3.org/2000/svg" xmlns:xlink="http://www.w3.org/1999/xlink">
    <!-- Generator: Sketch 46.2 (44496) - http://www.bohemiancoding.com/sketch -->
    <title>Shape</title>
    <desc>Created with Sketch.</desc>
    <defs></defs>
    <g id="Movies" stroke="none" stroke-width="1" fill="none" fill-rule="evenodd">
        <g id="Desktop-HD" transform="translate(-364.000000, -1078.000000)" fill="#FFFFFF">
            <g id="Group-4" transform="translate(53.000000, 771.000000)">
                <g id="Overlay-Badges" transform="translate(298.000000, 298.000000)">
                    <path d="M18.7734705,27.3578602 L17.1924068,27.4885648 C9.57205746,28.1193468 10.1042213,45.5213781 18.9591629,45.596445 C19.8635206,45.4657404 20.7705566,45.3376853 21.6463462,45.2626184 C22.5203504,45.1884348 23.3657865,45.1672394 24.292463,45.2060976 C25.2191396,45.2440725 26.2279493,45.3421009 27.2055126,45.5213781 C28.1839688,45.7006553 29.1276076,45.9620645 29.9908987,46.1651864 C30.8559754,46.3665421 31.6380261,46.5113769 32.5611316,46.63325 C33.4833444,46.7551232 34.5475047,46.8549179 35.6473751,46.8160598 C36.7463527,46.778968 37.879255,46.6041064 38.5889928,46.4654536 C39.2987306,46.3268008 39.5835184,46.2287724 39.8781266,45.9073098 C40.1727347,45.584081 40.4780559,45.0409506 40.6405368,44.5190155 C40.8039104,43.9953141 40.8244437,43.4972238 40.7280264,43.1033438 C40.6333947,42.7094639 40.4191343,42.4215606 40.2066593,42.1345404 C40.66107,42.0409277 41.114588,41.9499644 41.5163264,41.7715703 C41.917172,41.5940594 42.2671308,41.3291178 42.5340636,41.0058889 C42.8001037,40.6826601 42.9857961,40.3020272 43.0893554,39.8330804 C43.1947001,39.3632505 43.2179116,38.8077562 43.1509552,38.3873821 C43.0839988,37.9678911 42.9268745,37.6826372 42.7411821,37.4247606 C42.5545969,37.1660009 42.3403365,36.9355017 42.1233977,36.7032362 C42.5287071,36.441827 42.9340165,36.1795348 43.2839753,35.9154763 C43.6330413,35.6523009 43.9249712,35.386476 44.1374461,35.0323373 C44.3481356,34.6790818 44.4793701,34.2410449 44.5240077,33.8524638 C44.5695381,33.4647658 44.526686,33.1282899 44.4275905,32.8191912 C44.3276023,32.5083263 44.1722635,32.2239556 43.9026524,31.9060256 C43.6348268,31.5880956 43.2554072,31.2383726 43.0116859,31.0343675 C42.7661791,30.8285961 42.6572634,30.7685427 42.5474549,30.7084893 C42.8983064,30.388793 43.249158,30.0699798 43.5446588,29.7476341 C43.8401597,29.4270547 44.0776318,29.1029427 44.2079735,28.6896337 C44.3392081,28.278091 44.3597414,27.7782344 44.3204603,27.3587434 C44.282072,26.9392524 44.1838692,26.6010102 44.0276377,26.3175226 C43.8705133,26.0313856 43.6553601,25.8008863 43.3848562,25.5677377 C43.1125669,25.3328227 42.7849269,25.0970246 42.4813913,24.9451247 C42.1796411,24.7932249 41.9002098,24.72434 41.312779,24.6466238 C40.7244554,24.5662582 39.8290252,24.4726454 38.7595084,24.4558658 C37.6917771,24.4408524 36.4517446,24.5009059 35.6348766,24.5221012 C34.8171158,24.5432965 34.4243049,24.5274 34.0314941,24.5115035 C34.3323515,24.0222446 34.6358871,23.5347519 35.0822631,22.9395163 C35.5304246,22.3469301 36.1223191,21.6483672 36.6017269,20.9427392 C37.0820275,20.2388775 37.4489485,19.5314832 37.7069538,18.7622693 C37.9640664,17.9939384 38.113156,17.164671 38.1702921,16.4722901 C38.228321,15.7781429 38.1952892,15.2199991 38.0810169,14.6035681 C37.9649592,13.9853709 37.7694465,13.3106528 37.5105484,12.7710549 C37.2516503,12.231457 36.9302596,11.8287457 36.6070834,11.5081663 C36.2830145,11.18847 35.9562673,10.9526719 35.5679202,10.8254999 C35.1786803,10.6974447 34.7296261,10.6788988 34.3064617,10.6903796 C33.88419,10.7000942 33.4887009,10.7389523 33.1458841,10.864358 C32.8030674,10.9888806 32.5120302,11.1999508 32.3066973,11.4136704 C32.0995788,11.6282732 31.9790573,11.8455253 31.937098,12.1502083 C31.8969241,12.4557743 31.9362052,12.8470048 31.8853184,13.3733556 C31.8353243,13.8997064 31.6951622,14.5611775 31.5023278,15.1104899 C31.3112789,15.658036 31.0666648,16.0934235 30.7077785,16.6074103 C30.3479995,17.1231634 29.8730555,17.7148665 29.1409989,18.4072474 C28.4080495,19.1013946 27.4170949,19.8953365 26.5413052,20.6380563 C25.6664083,21.3816593 24.9048909,22.073157 24.3469209,22.6357165 C23.7889509,23.1965097 23.4327429,23.6265984 23.0435031,24.1670794 C22.6560487,24.7093267 22.2346698,25.3593169 21.8195401,25.8706543 C21.4044105,26.3819917 20.9946373,26.7546764 20.4786267,26.9834093 C19.9608306,27.2130255 19.3385825,27.2986899 18.7734705,27.3578602 Z" id="Shape" transform="translate(28.204830, 28.756040) rotate(-15.000000) translate(-28.204830, -28.756040) "></path>
                </g>
            </g>
        </g>
    </g>
</svg>