<?xml version="1.0" encoding="UTF-8"?>
<svg width="30px" height="30px" viewBox="0 0 30 30" version="1.1" xmlns="http://www.w3.org/2000/svg" xmlns:xlink="http://www.w3.org/1999/xlink">
    <!-- Generator: Sketch 46.2 (44496) - http://www.bohemiancoding.com/sketch -->
    <title>Combined Shape</title>
    <desc>Created with Sketch.</desc>
    <defs></defs>
    <g id="Movies" stroke="none" stroke-width="1" fill="none" fill-rule="evenodd">
        <g id="Movie-Landing" transform="translate(-53.000000, -7.000000)" fill-rule="nonzero" fill="#FFFFFF">
            <g id="Top-Bar">
                <path d="M72,20.4033455 C72.8893939,21.5666154 73.5957265,22.495826 73.9301009,22.9471244 C76.7257571,26.6965449 78.8355766,28.3626228 83,28.6457666 L83,31.9332156 C83,34.7288884 80.707097,37 77.8765678,37 L77.3127868,37 C73.9097583,37 72.1515754,34.2818192 71.2652187,33.1254002 L64,23.6803179 L64,23.611246 C63.104202,22.4411673 62.3925091,21.5060787 62.0564825,21.052898 C59.2674116,17.303484 57.153069,15.637409 53,15.3542656 L53,12.0608615 C53,9.25923257 55.2975662,6.9881249 58.1273534,7.00004672 L58.6770243,7.00004672 C62.0826573,7.00004672 63.8421858,9.71822283 64.7292209,10.8746399 L72,20.3197058 L72,20.4033455 Z M61.9964922,24.8029039 L61.9993812,35.3359592 C62.0236577,36.2296839 61.3306135,36.9744253 60.450852,37 L58.0933897,37 C55.279458,37 53,34.7666049 53,32.0108125 L53,18 C56.7702063,18 59.5379132,21.160797 61.9964922,24.8029039 Z M74.000619,19.187017 L74.000619,8.66506955 C73.9763347,7.77079236 74.6696014,7.02559055 75.5496454,7 L77.9049747,7 C80.71981,7 83,9.23477589 83,11.992272 L83,26 C79.2314731,26 76.4628774,22.8343122 74.000619,19.187017 Z" id="Combined-Shape"></path>
            </g>
        </g>
    </g>
</svg>