<?xml version="1.0" encoding="UTF-8"?>
<svg width="35px" height="35px" viewBox="0 0 35 35" version="1.1" xmlns="http://www.w3.org/2000/svg" xmlns:xlink="http://www.w3.org/1999/xlink">
    <!-- Generator: Sketch 46.2 (44496) - http://www.bohemiancoding.com/sketch -->
    <title>Medal</title>
    <desc>Created with Sketch.</desc>
    <defs>
        <linearGradient x1="20.880127%" y1="10.2254232%" x2="85.1359049%" y2="86.6516113%" id="linearGradient-1">
            <stop stop-color="#F8D04C" offset="0%"></stop>
            <stop stop-color="#EFA225" offset="100%"></stop>
        </linearGradient>
    </defs>
    <g id="Symbols" stroke="none" stroke-width="1" fill="none" fill-rule="evenodd">
        <g id="Medal">
            <g>
                <circle fill="url(#linearGradient-1)" cx="17.5" cy="17.5" r="17.5"></circle>
                <path d="M24,22.7204301 C23.1192887,23.1720453 22.2002993,23.4982069 21.2430044,23.6989247 C20.2857095,23.8996426 19.3092833,24 18.3136966,24 C17.2542902,24 16.2778641,23.8369192 15.3843888,23.5107527 C14.4909135,23.1845862 13.7187072,22.7172969 13.0677467,22.108871 C12.4167861,21.500445 11.9094274,20.7634452 11.5456554,19.8978495 C11.1818833,19.0322537 11,18.0663136 11,17 C11,15.9336864 11.1818833,14.9677463 11.5456554,14.1021505 C11.9094274,13.2365548 12.4167861,12.499555 13.0677467,11.891129 C13.7187072,11.2827031 14.4909135,10.8154138 15.3843888,10.4892473 C16.2778641,10.1630808 17.2542902,10 18.3136966,10 C19.3986309,10 20.3973936,10.1285829 21.3100147,10.3857527 C22.2226359,10.6429224 23.0235606,11.0851223 23.712813,11.7123656 L21.6067747,13.9704301 C21.1983288,13.5564495 20.7388342,13.2428326 20.2282769,13.0295699 C19.7177196,12.8163072 19.0795325,12.7096774 18.3136966,12.7096774 C17.6755,12.7096774 17.0979407,12.8163072 16.5810015,13.0295699 C16.0640622,13.2428326 15.6205222,13.5407687 15.2503682,13.9233871 C14.8802142,14.3060055 14.5962209,14.7607501 14.39838,15.2876344 C14.200539,15.8145188 14.10162,16.3853016 14.10162,17 C14.10162,17.6272433 14.200539,18.2011623 14.39838,18.7217742 C14.5962209,19.2423861 14.8802142,19.6939945 15.2503682,20.0766129 C15.6205222,20.4592313 16.0640622,20.7571674 16.5810015,20.9704301 C17.0979407,21.1836928 17.6755,21.2903226 18.3136966,21.2903226 C18.9646572,21.2903226 19.5262618,21.2181907 19.9985272,21.0739247 C20.4707927,20.9296588 20.8473231,20.7822588 21.1281296,20.6317204 L21.1281296,18.4677419 L18.6966127,18.4677419 L18.6966127,15.7580645 L24,15.7580645 L24,22.7204301 Z" id="G" fill="#000000" style="mix-blend-mode: overlay;"></path>
                <path d="M24,22.7204301 C23.1192887,23.1720453 22.2002993,23.4982069 21.2430044,23.6989247 C20.2857095,23.8996426 19.3092833,24 18.3136966,24 C17.2542902,24 16.2778641,23.8369192 15.3843888,23.5107527 C14.4909135,23.1845862 13.7187072,22.7172969 13.0677467,22.108871 C12.4167861,21.500445 11.9094274,20.7634452 11.5456554,19.8978495 C11.1818833,19.0322537 11,18.0663136 11,17 C11,15.9336864 11.1818833,14.9677463 11.5456554,14.1021505 C11.9094274,13.2365548 12.4167861,12.499555 13.0677467,11.891129 C13.7187072,11.2827031 14.4909135,10.8154138 15.3843888,10.4892473 C16.2778641,10.1630808 17.2542902,10 18.3136966,10 C19.3986309,10 20.3973936,10.1285829 21.3100147,10.3857527 C22.2226359,10.6429224 23.0235606,11.0851223 23.712813,11.7123656 L21.6067747,13.9704301 C21.1983288,13.5564495 20.7388342,13.2428326 20.2282769,13.0295699 C19.7177196,12.8163072 19.0795325,12.7096774 18.3136966,12.7096774 C17.6755,12.7096774 17.0979407,12.8163072 16.5810015,13.0295699 C16.0640622,13.2428326 15.6205222,13.5407687 15.2503682,13.9233871 C14.8802142,14.3060055 14.5962209,14.7607501 14.39838,15.2876344 C14.200539,15.8145188 14.10162,16.3853016 14.10162,17 C14.10162,17.6272433 14.200539,18.2011623 14.39838,18.7217742 C14.5962209,19.2423861 14.8802142,19.6939945 15.2503682,20.0766129 C15.6205222,20.4592313 16.0640622,20.7571674 16.5810015,20.9704301 C17.0979407,21.1836928 17.6755,21.2903226 18.3136966,21.2903226 C18.9646572,21.2903226 19.5262618,21.2181907 19.9985272,21.0739247 C20.4707927,20.9296588 20.8473231,20.7822588 21.1281296,20.6317204 L21.1281296,18.4677419 L18.6966127,18.4677419 L18.6966127,15.7580645 L24,15.7580645 L24,22.7204301 Z" id="G-Copy" fill="#000000" opacity="0.5" style="mix-blend-mode: overlay;"></path>
            </g>
        </g>
    </g>
</svg>