<?xml version="1.0" encoding="UTF-8"?>
<svg width="27px" height="27px" viewBox="0 0 27 27" version="1.1" xmlns="http://www.w3.org/2000/svg" xmlns:xlink="http://www.w3.org/1999/xlink">
    <!-- Generator: Sketch 46.2 (44496) - http://www.bohemiancoding.com/sketch -->
    <title>Combined Shape</title>
    <desc>Created with Sketch.</desc>
    <defs></defs>
    <g id="Movies" stroke="none" stroke-width="1" fill="none" fill-rule="evenodd">
        <g id="Movie-Landing" transform="translate(-422.000000, -1102.000000)" fill="#FFFFFF">
            <g id="b1" transform="translate(23.000000, 810.000000)">
                <g id="Bitmap">
                    <path d="M399.249479,309.113778 C398.91684,308.781139 398.91684,308.241825 399.249479,307.909186 L414.909186,292.249479 C415.241825,291.91684 415.781139,291.91684 416.113778,292.249479 L419.12526,295.260961 C418.459982,295.92624 418.459982,297.130832 419.12526,298.87474 C420.869168,299.540018 422.07376,299.540018 422.739039,298.87474 L425.750521,301.886222 C426.08316,302.218861 426.08316,302.758175 425.750521,303.090814 L410.090814,318.750521 C409.758175,319.08316 409.218861,319.08316 408.886222,318.750521 L405.87474,315.739039 C406.872657,314.741121 406.872657,313.123178 405.87474,312.12526 C404.876822,311.127343 403.258879,311.127343 402.260961,312.12526 L399.249479,309.113778 Z M413.56066,301.257359 C412.974874,300.671573 412.025126,300.671573 411.43934,301.257359 L408.257359,304.43934 C407.671573,305.025126 407.671573,305.974874 408.257359,306.56066 L411.43934,309.742641 C412.025126,310.328427 412.974874,310.328427 413.56066,309.742641 L416.742641,306.56066 C417.328427,305.974874 417.328427,305.025126 416.742641,304.43934 L413.56066,301.257359 Z" id="Combined-Shape"></path>
                </g>
            </g>
        </g>
    </g>
</svg>