<?xml version="1.0" encoding="UTF-8"?>
<svg width="32px" height="32px" viewBox="0 0 32 32" version="1.1" xmlns="http://www.w3.org/2000/svg" xmlns:xlink="http://www.w3.org/1999/xlink">
    <!-- Generator: Sketch 46.2 (44496) - http://www.bohemiancoding.com/sketch -->
    <title>Combined Shape</title>
    <desc>Created with Sketch.</desc>
    <defs></defs>
    <g id="Movies" stroke="none" stroke-width="1" fill="none" fill-rule="evenodd">
        <g id="Movie-Landing" transform="translate(-175.000000, -492.000000)" fill="#000000">
            <g id="BUY/PLAY-TRAILERS" transform="translate(53.000000, 482.000000)">
                <path d="M122.295679,30.2829966 C121.90144,29.8887576 121.90144,29.24957 122.295679,28.8553311 L140.855331,10.2956792 C141.24957,9.90144026 141.888758,9.90144026 142.282997,10.2956792 L145.85216,13.864843 C144.669444,15.0475599 144.669444,16.9651228 145.85216,18.1478396 C147.034877,19.3305565 148.95244,19.3305565 150.135157,18.1478396 L153.704321,21.7170034 C154.09856,22.1112424 154.09856,22.75043 153.704321,23.1446689 L135.144669,41.7043208 C134.75043,42.0985597 134.111242,42.0985597 133.717003,41.7043208 L130.14784,38.135157 C131.330556,36.9524401 131.330556,35.0348772 130.14784,33.8521604 C128.965123,32.6694435 127.04756,32.6694435 125.864843,33.8521604 L122.295679,30.2829966 Z M139.257079,20.9716851 C138.562813,20.2774197 137.437187,20.2774197 136.742921,20.9716851 L132.971685,24.7429213 C132.27742,25.4371867 132.27742,26.5628133 132.971685,27.2570787 L136.742921,31.0283149 C137.437187,31.7225803 138.562813,31.7225803 139.257079,31.0283149 L143.028315,27.2570787 C143.72258,26.5628133 143.72258,25.4371867 143.028315,24.7429213 L139.257079,20.9716851 Z" id="Combined-Shape"></path>
            </g>
        </g>
    </g>
</svg>